<svg xmlns="http://www.w3.org/2000/svg"  viewBox="0 0 64 64" width="64px" height="64px"><linearGradient id="lRqB5~aNq5_aYYIEEl0j9a" x1="12.875" x2="12.875" y1="19.2" y2="29.696" gradientUnits="userSpaceOnUse"><stop offset="0" stop-color="#6dc7ff"/><stop offset="1" stop-color="#e6abff"/></linearGradient><path fill="url(#lRqB5~aNq5_aYYIEEl0j9a)" d="M12.805,29.139c1.176-2.638,2.862-4.977,4.945-6.874c-0.168-0.522-0.443-1.017-0.858-1.431	l-0.482-0.482c-1.802-1.802-4.724-1.802-6.526,0l-0.333,0.333c-2.068,2.068-2.068,5.422,0,7.49v0	C10.435,29.059,11.666,29.377,12.805,29.139z"/><linearGradient id="lRqB5~aNq5_aYYIEEl0j9b" x1="51.125" x2="51.125" y1="19.2" y2="29.696" gradientUnits="userSpaceOnUse"><stop offset="0" stop-color="#6dc7ff"/><stop offset="1" stop-color="#e6abff"/></linearGradient><path fill="url(#lRqB5~aNq5_aYYIEEl0j9b)" d="M54.449,20.684l-0.333-0.333c-1.802-1.802-4.724-1.802-6.526,0l-0.482,0.482	c-0.414,0.414-0.69,0.909-0.858,1.431c2.084,1.897,3.77,4.236,4.945,6.874c1.138,0.238,2.37-0.08,3.253-0.964v0	C56.517,26.106,56.517,22.753,54.449,20.684z"/><linearGradient id="lRqB5~aNq5_aYYIEEl0j9c" x1="32" x2="32" y1="11.077" y2="52.926" gradientUnits="userSpaceOnUse"><stop offset="0" stop-color="#1a6dff"/><stop offset="1" stop-color="#c822ff"/></linearGradient><path fill="url(#lRqB5~aNq5_aYYIEEl0j9c)" d="M38.385,53h-12.77c-4.4,0-8.469-1.809-11.457-5.093c-3.021-3.319-4.511-7.806-4.085-12.308	C11.128,24.426,20.242,16,31.273,16h1.453c11.031,0,20.146,8.426,21.2,19.6c0.426,4.502-1.063,8.988-4.085,12.308	C46.854,51.191,42.785,53,38.385,53z M31.273,18c-9.994,0-18.252,7.646-19.21,17.787c-0.372,3.943,0.931,7.87,3.573,10.774	C18.242,49.424,21.785,51,25.615,51h12.77c3.83,0,7.373-1.576,9.979-4.438c2.643-2.904,3.945-6.831,3.573-10.774	C50.979,25.646,42.721,18,32.727,18H31.273z"/><linearGradient id="lRqB5~aNq5_aYYIEEl0j9d" x1="31.942" x2="32.042" y1="32.604" y2="41.904" gradientUnits="userSpaceOnUse"><stop offset="0" stop-color="#6dc7ff"/><stop offset="1" stop-color="#e6abff"/></linearGradient><path fill="url(#lRqB5~aNq5_aYYIEEl0j9d)" d="M36,38c0,2.209-1.791,4-4,4s-4-1.791-4-4s1.791-6.667,4-6.667S36,35.791,36,38z"/><linearGradient id="lRqB5~aNq5_aYYIEEl0j9e" x1="32" x2="32" y1="11.077" y2="52.926" gradientUnits="userSpaceOnUse"><stop offset="0" stop-color="#1a6dff"/><stop offset="1" stop-color="#c822ff"/></linearGradient><path fill="url(#lRqB5~aNq5_aYYIEEl0j9e)" d="M32,43c-2.757,0-5-2.243-5-5c0-2.342,1.889-7.667,5-7.667s5,5.325,5,7.667	C37,40.757,34.757,43,32,43z M32,32.333c-1.295,0-3,3.564-3,5.667c0,1.654,1.346,3,3,3s3-1.346,3-3	C35,35.897,33.295,32.333,32,32.333z"/><linearGradient id="lRqB5~aNq5_aYYIEEl0j9f" x1="40.769" x2="40.769" y1="11.077" y2="52.926" gradientUnits="userSpaceOnUse"><stop offset="0" stop-color="#1a6dff"/><stop offset="1" stop-color="#c822ff"/></linearGradient><path fill="url(#lRqB5~aNq5_aYYIEEl0j9f)" d="M42.829,38.117c-0.049,0-0.099-0.004-0.148-0.011l-4.119-0.613	c-0.546-0.081-0.923-0.59-0.842-1.137c0.082-0.546,0.592-0.912,1.137-0.842l4.119,0.613c0.546,0.081,0.923,0.59,0.842,1.137	C43.743,37.761,43.316,38.117,42.829,38.117z"/><linearGradient id="lRqB5~aNq5_aYYIEEl0j9g" x1="31.973" x2="31.973" y1="11.077" y2="52.926" gradientUnits="userSpaceOnUse"><stop offset="0" stop-color="#1a6dff"/><stop offset="1" stop-color="#c822ff"/></linearGradient><path fill="url(#lRqB5~aNq5_aYYIEEl0j9g)" d="M32,46c-1.308,0-2.574-0.394-3.663-1.139c-0.456-0.312-0.572-0.934-0.261-1.39	c0.311-0.455,0.933-0.573,1.39-0.261c1.495,1.022,3.521,1.033,5.023,0.03c0.461-0.309,1.081-0.184,1.387,0.275	c0.308,0.459,0.184,1.08-0.275,1.387C34.527,45.621,33.282,46,32,46z"/><linearGradient id="lRqB5~aNq5_aYYIEEl0j9h" x1="22.65" x2="22.65" y1="11.077" y2="52.926" gradientUnits="userSpaceOnUse"><stop offset="0" stop-color="#1a6dff"/><stop offset="1" stop-color="#c822ff"/></linearGradient><path fill="url(#lRqB5~aNq5_aYYIEEl0j9h)" d="M20.59,38.117c-0.487,0-0.914-0.356-0.988-0.853c-0.081-0.547,0.296-1.056,0.842-1.137	l4.118-0.613c0.551-0.07,1.056,0.296,1.137,0.842c0.081,0.547-0.296,1.056-0.842,1.137l-4.118,0.613	C20.688,38.113,20.639,38.117,20.59,38.117z"/><linearGradient id="lRqB5~aNq5_aYYIEEl0j9i" x1="11.698" x2="11.698" y1="11.077" y2="52.926" gradientUnits="userSpaceOnUse"><stop offset="0" stop-color="#1a6dff"/><stop offset="1" stop-color="#c822ff"/></linearGradient><path fill="url(#lRqB5~aNq5_aYYIEEl0j9i)" d="M12.193,30.668c-0.689,0.27-1.428,0.415-2.19,0.415c-1.604,0-3.112-0.625-4.247-1.76	c-3.669-3.669-3.669-9.638,0-13.307l0.653-0.653C7.934,13.839,9.96,13,12.114,13c2.155,0,4.182,0.839,5.705,2.363l0.948,0.948	c1.07,1.07,1.626,2.448,1.719,3.852c0.613-0.392,1.25-0.745,1.904-1.07c-0.291-1.58-1.047-3.035-2.208-4.196l-0.948-0.948	C17.332,12.047,14.804,11,12.114,11c-2.688,0-5.217,1.047-7.119,2.949l-0.653,0.653c-4.448,4.448-4.448,11.687,0,16.135	c1.513,1.513,3.522,2.346,5.661,2.346c0.521,0,1.033-0.051,1.533-0.148C11.714,32.161,11.933,31.405,12.193,30.668z"/><linearGradient id="lRqB5~aNq5_aYYIEEl0j9j" x1="52.302" x2="52.302" y1="11.077" y2="52.926" gradientUnits="userSpaceOnUse"><stop offset="0" stop-color="#1a6dff"/><stop offset="1" stop-color="#c822ff"/></linearGradient><path fill="url(#lRqB5~aNq5_aYYIEEl0j9j)" d="M59.658,14.603l-0.653-0.653C57.103,12.047,54.574,11,51.886,11	c-2.689,0-5.218,1.047-7.119,2.949l-0.948,0.948c-1.161,1.161-1.917,2.616-2.208,4.196c0.654,0.325,1.291,0.678,1.904,1.07	c0.092-1.403,0.648-2.782,1.718-3.852l0.948-0.948C47.704,13.839,49.73,13,51.886,13c2.154,0,4.181,0.839,5.705,2.363l0.653,0.653	c3.669,3.669,3.669,9.638,0,13.307c-1.135,1.135-2.644,1.76-4.247,1.76c-0.762,0-1.501-0.145-2.19-0.415	c0.26,0.737,0.479,1.493,0.657,2.267c0.5,0.096,1.012,0.148,1.533,0.148c2.139,0,4.148-0.833,5.661-2.346	C64.106,26.289,64.106,19.051,59.658,14.603z"/></svg>